# xmcd
#
# Track frame offsets:
#	182
#	10912
#	24037
#	36932
#	47182
#	59142
#	72970
#	86585
#	96455
#	109677
#
# Disc length: 1604
#
# Revision: 2
# Processed by: cddbd v1.5.1PL0 Copyright (c) Steve Scherf et al.
# Submitted via: audiograbber 1.80
# Normalized: r1:DSETVAR1,TDELIM( - )
#
DISCID=8306420a
DTITLE=Various Artist - Country Giants - The American Western Dream
DYEAR=1900
DGENRE=
TTITLE0=Dolly Parton - Honky Tonk Angels
TTITLE1=Kenny Rogers - Ruby, Don't Take Your Love To Town
TTITLE2=Johnny Paycheck - Talk About Me
TTITLE3=Waylon Jennings - White Lightning
TTITLE4=Billie Jo Spears - Look What They've Done To My Song
TTITLE5=Willie Nelson - Home Is Where You're Happy
TTITLE6=Kenny Rogers - Shine On Ruby Mountain
TTITLE7=Donna Fargo - Sticks And Stones
TTITLE8=Lynn Anderson - Rose Garden
TTITLE9=Patsy Cline - The Heart You Break May Be Your Own
EXTD=
EXTT0=
EXTT1=
EXTT2=
EXTT3=
EXTT4=
EXTT5=
EXTT6=
EXTT7=
EXTT8=
EXTT9=
PLAYORDER=
